<svg xmlns="http://www.w3.org/2000/svg" xmlns:xlink="http://www.w3.org/1999/xlink" width="100%" version="1.1" viewBox="0 0 240 80" fill="#00cc4c"><path d="M98 20.2c0-.4-.3-.8-.8-.8h-7.6c-.4 0-.8.4-.8.8v39.5c0 .4.3.8.8.8h7.6c.4 0 .8-.3.8-.8V20.2zM38.8 60.5h-3.6c-.8 0-1.3 0-1.4-.2 2.7-1.2 4.5-3.2 4.5-5.4V25.1c0-3.8-5.2-6.9-11.6-6.9-6.4 0-11.6 3.1-11.6 6.9v29.7c0 3.8 5.2 6.9 11.6 6.9.9 0 1.8-.1 2.7-.2.1 1 .4 1.5 1 2.2.9.8 2.1 1.1 4.2 1.2h4.2c.4 0 .8-.3.8-.8v-2.9c0-.8-.8-.7-.8-.7m-12-3.5c-1.4 0-2.6-.9-2.6-1.9v-30c0-1 1.1-1.9 2.6-1.9 1.4 0 2.5.8 2.5 1.9v30c0 1.1-1.1 1.9-2.5 1.9M8.4 19.4H.8c-.4 0-.8.4-.8.8v7.6c0 .4.3.8.8.8h7.6c.4 0 .8-.3.8-.8v-7.6c-.1-.4-.4-.8-.8-.8m44.4.1h-7.6c-.4 0-.8.3-.8.7v39.5c0 .4.3.8.8.8h7.6c.4 0 .7-.3.7-.8V20.2c0-.4-.3-.7-.7-.7M8.4 32.8H.8c-.4 0-.8.3-.8.8v26.1c0 .4.4.8.8.8h7.6c.4 0 .8-.3.8-.8V33.6c-.1-.5-.4-.8-.8-.8m77-12.4c0-.1.1-.2.1-.3 0-.4-.5-.7-.9-.8H77c-.6 0-.7.5-.7.5l-5 12.8-5-12.9c-.1-.3-.4-.5-.7-.5h-8c-.4 0-.5.4-.5.8v.3L66.5 45v14.6c0 .4.3.8.7.8H75c.4 0 .8-.3.8-.8V45l9.6-24.6zm12.5-4.9c-.1-2.1-.7-4.8-2.1-6.7-1.4-1.9-2.6-2.9-4.5-3.7C85.9 2.6 69 .4 49 .4 29 .4 12 2.6 6.6 5.1 4.7 6 3.4 6.9 2.1 8.8.8 10.7.2 13.5.1 15.5c0 .3.1.7.6.7h8c.5 0 .6-.4.7-.7.3-.9 1-2.4 1.9-3.1 1.5-1.3 2.5-1.7 4.6-2C24.1 9.2 37.5 8.5 49 8.5s24.9.7 33.2 1.9c2.1.3 3.1.7 4.6 2 .9.8 1.6 2.2 1.9 3.1.1.3.2.7.7.7h8c.5.1.5-.4.5-.7"/><path d="M97.9 64.5c-.1 2.1-.7 4.9-2.1 6.7-1.4 1.9-2.6 2.8-4.5 3.7-5.4 2.5-22.3 4.7-42.3 4.7-20 0-37-2.2-42.4-4.6-1.9-.9-3.2-1.8-4.5-3.7-1.3-1.9-1.9-4.7-2-6.7 0-.3.1-.7.6-.7h8c.5 0 .6.4.7.7.3.9 1 2.4 1.9 3.2 1.5 1.3 2.5 1.7 4.6 2 8.4 1.2 21.7 1.9 33.2 1.9 11.5 0 24.9-.7 33.2-1.9 2.1-.3 3.1-.7 4.6-2 .9-.8 1.6-2.2 1.9-3.2.1-.3.2-.7.7-.7h8c.4-.2.4.3.4.6m79-37.1c-1 0-1.8.6-1.9 1.5-.2.9.2 2 1.8 2.5 6 1.4 10.6 2.5 13.8 4.2.4.2.8.2 1.1.2.7 0 1.4-.3 1.7-1.1.1-.3.2-.8.1-1.2-.1-.4-.3-.8-.6-1.1-.2-.2-.5-.4-.8-.6-4.5-2.3-9.4-3.4-14.5-4.5-.3.1-.5.1-.7.1"/><path d="M156.6 35.6c9.5-.6 15.6-3.5 18-8.8h15.7c.7 0 1.7-.3 1.7-2 0-1.6-1.1-1.9-1.7-1.9h-14.7c.1-.8.2-1.3.2-1.9 0-.7-.4-1.5-1.1-1.7-.8-.3-2-.2-2.6.6-.2.2-.3.6-.4.8 0 0-.3 1.4-.4 2l-.1.1H158c-1.3 0-2.1.7-2.1 1.9 0 1.3.7 2 2.1 2h11.9c-.1 0-.3.3-.4.4l-.4.4-.8.8c-.6.5-1.3 1-2 1.3-.9.4-1.8.7-2.7 1-1.1.3-2.2.5-3.3.6-1.3.2-2.5.3-3.8.4-.9.1-1.8.6-2 1.5-.2.7 0 1.7.7 2.1.5.3 1 .4 1.4.4M148 56.2c-4.9-.3-9.1-1.3-12.6-2.9 2.5-1.9 4.5-4.1 5.7-6.6.8-1.6.9-2.8.4-3.7-.4-.7-1.3-1-2.6-1h-13.8c.3-.6.6-1.3.8-2h16.9c1.6-.1 2.1-1 2.2-1.8.1 0 .1.1.2.1.3.1.6.2.8.2.6 0 1.3-.3 1.8-1.4 1-3.4.8-5.6-.1-6.8-.5-.7-1.2-1-2.2-1h-5.1c.4-.6.7-1.2 1-1.9.3-.6.6-1.3.7-2 .1-.3 0-.7-.1-1.1-.1-.1-.1-.3-.3-.4 1.1-.1 1.7-.1 2.8-.3.5-.1 1.1-.2 1.5-.5.5-.4.8-1.2.8-1.8-.1-.6-.5-1.2-1-1.5-.3-.1-.7-.2-1-.2h-.4c-6.8 1.1-14.2 1.7-22 1.7-2.8 0-5.7 0-8.6-.2-1.8 0-2.3.9-2.4 1.7 0 .8.4 1.9 2.2 2.1.4.1 1 .1 1.9.2l-.1.5c0 .2.1.4.2.6.3.8 1.1 1.4 1.5 2.1.3.4.5.8.7 1h-4.6c-1.4 0-3.1.6-3.1 3.4V36c0 1.3.7 2.1 2.1 2.1.3 0 .6 0 .8-.1 0 1.2.7 1.9 2.1 2.1h6.5c-2.6 5.5-6.4 9.5-11.4 12.1-1.3.8-1.6 1.8-1 3 .5.5 1.1.8 1.9.8 1.7 0 3.1-1.2 4.4-2.1 1.4-.9 2.6-2 3.8-3.2.3-.3.6-.7.9-1 .1-.1.9-1 .9-1 1.8 2.1 3.8 3.9 6.1 5.4-3.4 1.4-7.6 2.3-12.3 2.5-.8.1-1.5.4-2 1.1-.8 1.4.2 2.8 1.6 3 .3 0 2.7-.2 3.9-.4 2.4-.4 4.7-1 7.1-1.7 1-.3 2-.7 3-1.1.9-.4 1.8-.8 2.7-1.3l.3-.2c5.2 2.4 10.7 3.8 16.4 4.3 1.2 0 1.9-.7 2.1-1.9-.2-1.3-.8-2-2-2.2m-9.2-31.9c-.1.2-.2.3-.3.5-.6 1.8-1.5 3.3-2.8 4.5h-4.2c-.6-1.8-1.3-3.2-1.8-4.4 3.4-.1 6.5-.4 9.1-.6m-10.9 9.2h15.6c.3 0 .7 0 .7.4.1.7-.2 2.3-.2 2.5-.3-.2-.8-.2-1.3-.2h-15.3c.4-1.5.5-2.3.5-2.7m-2.1-8.3c-.1.5 0 .9.2 1.3.6 1.2 1 2.2 1.3 2.9h-5.8c.2-.5.1-1-.2-1.4-.5-1-1.1-1.9-1.8-2.7h6.3zm-2.9 10.9H115c-.4 0-.8.1-1.1.2V36s-.2-2 .1-2.4c.2-.2.6-.2.8-.2h8.9c-.2 1.1-.4 2-.8 2.7m8.1 15.6c-2.9-1.6-5.1-3.4-6.7-5.5h12.2c.1.1.1.2.1.3-.1.6-.9 2-5.6 5.2m61.8-15.2h-36.2c-1.3 0-2.1.6-2.2 1.8-.1.6 0 1.1.3 1.4.3.4.8.6 1.6.7h28.2v15c0 .3-.1 1.3-2.7 1.3-1.2 0-2.9-.1-5-.5-.2 0-.4-.1-.6-.1-.9 0-1.5.5-1.8 1.4-.2.7-.1 1.3.1 1.7.2.4.7.6 1.2.8 2.5.5 4.6.7 6.4.7 4 0 6.2-1.5 6.3-4.4V40.4h4.6c1.2-.1 1.8-.9 1.8-2.1 0-1.2-.8-1.8-2-1.8"/><path d="M180.5 43.5c-.4-.4-1-.7-1.8-.8h-18.1c-.8.1-1.4.3-1.8.8-.4.4-.6.9-.7 1.6v7c.1.6.3 1.2.7 1.6.4.4 1 .7 1.8.7h18.1c.8-.1 1.4-.3 1.8-.7.4-.4.6-.9.6-1.6v-7c-.1-.7-.3-1.2-.6-1.6m-3.3 6.4c0 .7-.3.9-.9.9H163c-.7 0-.9-.3-.9-.9v-2.7c0-.7.3-.9.9-.9h13.3c.7 0 .9.3.9.9v2.7zM240 25.5c-.2-1.6-1.1-1.8-1.7-1.8H229V21c0-.7-.2-1.7-1.9-1.7-1.8 0-2 1.1-2 1.7v2.7h-10.4V21c0-.7-.2-1.7-1.9-1.7-1.8 0-2 1.1-2 1.7v2.7h-10c-.6 0-1.7.2-1.7 1.9 0 1.6 1.1 1.9 1.7 1.9h10v3.9c0 .6.2 1.6 1.9 1.6 1.6 0 1.9-1 1.9-1.6v-3.9H225v3.9c0 .6.3 1.6 1.9 1.6 1.6 0 1.9-1 1.9-1.6v-3.9h9.5c.6 0 1.5-.3 1.7-2m-5.3 23.4c-1 0-1.7.8-1.9 1.8-.1.3-.1.6-.1 1 .1 1.7 0 3.1-.6 3.8-.7.8-1.7.6-2.9.6h-14.8c-1.2 0-2.4.1-3.6 0-.6 0-1.2-.1-1.8-.2-.5-.1-1.1-.1-1.5-.5-.2-.3-.4-.6-.3-1 .1-.4.4-.6.7-.8 1.3-.7 25.5-14.8 25.9-15.2 1.3-1.1 1.3-2.2 1.1-3-.5-1-1.4-1.5-2.8-1.5h-27.6c-1.8 0-2.1 1.2-2.1 1.9.1.8.6 1.9 2.3 1.9h23c-.5.3-1 .6-1.5.8-1 .6-14 7.8-15.4 8.6-1.2.7-2.3 1.3-3.5 2-1 .6-2 1.3-2.8 2-.8.7-1.5 1.5-1.9 2.5-.1.3-.2.6-.2.9 0 .6 0 1.1.2 1.6.4 1.3 1.5 2.6 3.2 3.2 2.1.7 6.7.6 11.6.6h12.3c3.1 0 4.1-.6 5.1-1.7 1.3-1.4 1.9-3.8 1.7-7-.1-1-.4-1.9-1.3-2.4-.1.1-.3.1-.5.1"/></svg>