<?xml version="1.0" encoding="UTF-8"?>
<svg width="1000px" height="272px" viewBox="0 0 1000 272" version="1.1" xmlns="http://www.w3.org/2000/svg" xmlns:xlink="http://www.w3.org/1999/xlink">
    <title>logo_new</title>
    <defs>
        <path d="M135.317997,0 C60.5832206,0 0,60.5845737 0,135.317997 L0,135.317997 C0,210.052774 60.5832206,270.635995 135.317997,270.635995 L135.317997,270.635995 C210.051421,270.635995 270.635995,210.052774 270.635995,135.317997 L270.635995,135.317997 C270.635995,60.5845737 210.051421,0 135.317997,0 Z" id="path-1"></path>
        <linearGradient x1="82.793396%" y1="87.9441881%" x2="12.5274048%" y2="6.6416521%" id="linearGradient-3">
            <stop stop-color="#E62828" offset="0%"></stop>
            <stop stop-color="#FF593B" offset="100%"></stop>
        </linearGradient>
        <polygon id="path-4" points="0 270.635995 999.322057 270.635995 999.322057 0 0 0"></polygon>
    </defs>
    <g id="logo_new" stroke="none" stroke-width="1" fill="none" fill-rule="evenodd">
        <g id="编组" transform="translate(0.000000, 0.154589)">
            <g>
                <mask id="mask-2" fill="white">
                    <use xlink:href="#path-1"></use>
                </mask>
                <g id="Clip-2"></g>
                <path d="M135.317997,0 C60.5832206,0 0,60.5845737 0,135.317997 L0,135.317997 C0,210.052774 60.5832206,270.635995 135.317997,270.635995 L135.317997,270.635995 C210.051421,270.635995 270.635995,210.052774 270.635995,135.317997 L270.635995,135.317997 C270.635995,60.5845737 210.051421,0 135.317997,0 Z" id="Fill-1" fill="url(#linearGradient-3)" mask="url(#mask-2)"></path>
            </g>
            <g>
                <path d="M73.6648173,112.894723 L89.511908,70.9786198 C92.9841678,63.9826793 91.6188092,58.1207037 85.5606225,54.0273342 C79.7541272,50.0976996 72.0315291,48.9420839 68.714885,50.2167794 C65.3982409,51.491475 65.2981055,54.2181326 65.3941813,56.0543978 C66.820433,71.9515562 63.2074425,88.0936401 57.6445196,105.109878 C48.0964817,134.307442 24.9138024,163.066576 31.6364005,164.017862 C34.4658999,164.41705 40.1993234,161.636265 45.6445196,155.362923 C53.02341,146.874425 64.7338295,130.184303 64.7338295,130.184303 C67.9868742,143.356157 69.9801083,155.979973 70.6580514,167.753992 C71.3928281,180.541543 72.1343708,194.373748 72.8623816,208.768877 C72.7933694,212.951556 73.6228687,216.959675 75.3278755,220.686333 C77.008525,224.36157 83.3224628,231.789175 85.7,233.195129 C87.9841678,234.546955 95.0937754,235.096346 94.5917456,225.557781 C94.399594,221.91502 83.9828146,131.345332 80.6742896,121.487415 C79.7906631,118.856834 77.3671177,116.084168 73.6648173,112.894723" id="Fill-3" fill="#FFFFFF"></path>
                <path d="M235.399594,178.680514 C232.085656,177.324628 229.502436,176.584438 227.463194,176.45318 C225.43207,176.313802 223.384709,176.059405 218.838024,177.495129 C214.29134,178.930853 121.969283,201.648038 121.969283,201.648038 L114.572801,150.317862 C113.589039,144.749526 110.886739,141.127064 106.541678,139.557375 C102.413126,138.067524 98.3332882,138.013396 93.8407307,139.810419 C91.1790257,140.876725 90.5849797,144.058051 90.9584574,145.194723 C91.3792963,146.476184 93.9922869,150.30433 96.0775372,152.821245 C97.9571042,155.094587 99.264276,157.842896 99.9489851,160.924087 C99.9489851,160.924087 106.264276,202.737348 103.011231,209.98092 C102.308931,212.531664 102.437483,216.221786 107.030176,219.340866 C109.192558,220.809066 111.442896,221.44912 113.656698,221.901083 C116.414479,222.464005 128.536265,216.569553 157.459134,208.114885 C186.38065,199.66157 229.418539,195.535724 235.145196,194.989039 C240.871854,194.439648 243.1682,190.47889 242.948985,187.68728 C242.649932,183.979567 240.13843,180.961976 235.399594,178.680514" id="Fill-5" fill="#FFFFFF"></path>
                <path d="M164.725034,106.299323 C168.22977,106.475237 169.302842,108.698512 169.986198,111.912314 C170.669553,115.124763 177.546414,152.511773 178.359675,163.471177 C178.359675,163.471177 176.428687,162.716103 172.283897,163.767524 C168.611367,164.698512 147.52341,172.419756 143.08092,174.030041 C142.499053,170.250609 141.78728,165.896076 141.009202,161.295264 C146.002436,159.726928 162.957781,154.517185 166.056563,153.461705 C168.355616,152.610555 170.001083,151.218133 170.006495,149.952909 C170.011908,148.760758 168.116103,144.47659 162.262246,143.640325 C157.290663,142.929905 145.201353,147.346685 138.976725,149.518539 C138.212179,145.159946 137.443572,140.854127 136.720974,136.844655 C140.890122,135.705277 158.354263,130.498241 162.224357,129.369689 C164.436806,128.695805 167.197294,126.587551 166.029499,124.081461 C164.864411,121.576725 162.187821,120.142355 159.187821,119.904195 C156.187821,119.666035 150.990257,120.35751 147.094452,121.806766 C143.723681,123.061164 137.756157,125.364276 134.831935,126.445467 C133.700677,120.27226 132.937483,116.191069 132.937483,116.191069 C132.937483,116.191069 160.462517,106.085521 164.725034,106.299323 M123.071448,87.3304465 C126.258187,86.7215156 130.509878,85.7972936 135.347497,84.6714479 C134.882003,93.6132612 134.148579,101.801353 133.861705,104.814885 C130.718268,106.162652 128.718268,107.031394 128.718268,107.031394 C125.798106,105.785115 122.633018,105.372395 119.298782,105.801353 C117.320433,106.062517 115.85088,106.82977 114.934777,108.078755 C113.957781,109.411637 113.501759,112.346685 114.486874,114.12341 C115.273072,115.541543 117.494993,118.173478 118.890122,122.661976 C120.286604,127.14912 128.818403,179.856834 129.620839,183.433288 C130.423275,187.011096 134.896888,192.559134 137.716915,192.622665 C140.536942,192.68498 143.168877,190.389986 144.522057,184.985386 L181.959134,175.070636 C182.121516,175.021922 189.430041,181.486062 193.036265,180.689039 C197.093099,179.791881 199.453045,175.762111 199.604601,172.151827 C199.746685,168.781055 197.546414,151.096346 195.455751,141.38728 C193.407037,131.910961 191.384032,117.643031 191.596482,113.555074 C191.808931,109.465765 194.726387,98.491475 191.879296,94.8392422 C188.7318,90.8013532 179.937483,88.1125846 173.333965,89.1964817 C170.661434,89.6362652 160.722327,93.5686062 150.900947,97.6294993 C151.011908,91.7350474 151.302842,85.9962111 151.703383,80.6565629 C171.156698,75.6606225 192.010555,69.5523681 194.494993,66.9813261 C198.421922,62.9123139 195.703383,55.0990528 191.538295,53.8175913 C187.37456,52.5374831 181.162111,52.5428958 173.693911,55.4211096 C167.955074,57.6335589 163.807578,60.5658999 153.335318,64.5510149 C154.071448,58.8784844 154.841407,54.4359946 155.443572,51.8514208 C157.024087,45.0598106 158.891475,41.2032476 150.811637,36.4102842 C138.968606,29.8730717 129.720974,32.5456022 128.917185,37.258728 C127.953721,42.9014885 134.049797,46.4414073 135.432747,62.1978349 C135.63843,64.5537212 135.726387,67.3182679 135.741272,70.2614344 C114.573478,76.176184 97.079567,78.2627876 96.9479272,83.9136671 C96.8820027,86.7445196 105.462517,90.6958051 123.071448,87.3304465" id="Fill-7" fill="#FFFFFF"></path>
                <path d="M446.430853,76.8253045 L414.917997,76.8253045 L414.917997,35.9822733 C414.917997,33.4883627 412.911231,31.4599459 410.443031,31.4599459 L406.33613,31.4599459 C403.86793,31.4599459 401.861164,33.4883627 401.861164,35.9822733 L401.861164,76.8253045 L368.811096,76.8253045 C366.344249,76.8253045 364.337483,78.8537212 364.337483,81.3476319 L364.337483,84.4721245 C364.337483,86.9660352 366.344249,88.994452 368.811096,88.994452 L401.861164,88.994452 L401.861164,150.695399 C401.861164,153.190663 403.86793,155.21908 406.33613,155.21908 L410.443031,155.21908 C412.911231,155.21908 414.917997,153.190663 414.917997,150.695399 L414.917997,88.994452 L446.430853,88.994452 C448.899053,88.994452 450.905819,86.9660352 450.905819,84.4721245 L450.905819,81.3476319 C450.905819,78.8537212 448.899053,76.8253045 446.430853,76.8253045" id="Fill-9" fill="#333333"></path>
                <path d="M366.669959,35.9069012 C366.101624,34.8121786 365.100271,33.9894452 363.927064,33.6484438 L359.703789,32.4251691 C357.376319,31.7553451 354.90406,33.1247632 354.201759,35.4901218 C347.986604,56.4414073 338.646955,75.785115 326.438566,92.9826793 C325.311367,94.5713126 325.268065,96.6782138 326.327605,98.2221922 C327.055616,99.2857916 327.734912,100.384574 328.346549,101.486062 C329.084032,102.813532 330.425034,103.667388 331.933829,103.766171 C333.450744,103.85954 334.889175,103.197835 335.797158,101.975913 C338.914885,97.7769959 341.935183,93.1179973 344.802571,88.0828146 L344.802571,151.218133 C344.802571,153.713396 346.809337,155.741813 349.277537,155.741813 L352.868877,155.741813 C355.337077,155.741813 357.343843,153.713396 357.343843,151.218133 L357.343843,63.6010825 C360.913532,55.7391069 364.140866,47.6240866 366.939242,39.47659 C367.339783,38.3074425 367.242355,37.0070365 366.669959,35.9069012" id="Fill-11" fill="#333333"></path>
                <path d="M554.983897,100.240325 C553.489986,98.2930988 550.692963,97.9128552 548.748444,99.3918809 L545.828281,101.612449 C543.862111,103.10636 543.469689,105.949391 544.954127,107.950744 C551.320839,116.524493 557.34249,124.879026 562.872936,132.807307 C548.837754,134.100947 530.674019,135.091475 508.813396,135.75318 C504.365494,136.004871 500.683491,136.1659 497.81475,136.234912 C518.507578,115.89797 538.111096,91.768065 556.115156,64.4690122 C556.81069,63.4162382 557.039378,62.1009472 556.736265,60.8654939 C556.437212,59.6368065 555.640189,58.5840325 554.549526,57.9764547 L550.251827,55.5799729 C548.162517,54.4135318 545.54682,55.1131258 544.297835,57.1740189 C529.6023,81.3972936 511.010961,105.320162 489.052909,128.264682 C485.579296,131.788363 481.848579,134.585386 477.95954,136.579973 C475.787686,137.69364 474.906766,140.394587 475.994723,142.601624 L478.400677,147.481191 C479.319486,149.34046 481.361434,150.328281 483.349256,149.877673 C486.744384,149.115832 491.047497,148.454127 496.10839,147.915562 C528.416915,145.523139 553.416915,143.956157 570.434506,143.253857 C570.898647,144.004871 571.642896,145.023816 572.682138,146.339107 C573.442625,147.569147 574.132747,148.66387 574.757916,149.625981 C575.442625,150.677402 576.541407,151.39594 577.768742,151.597564 C578.005548,151.635453 578.242355,151.655751 578.479161,151.655751 C579.473748,151.655751 580.452097,151.320162 581.243708,150.69364 L585.121922,147.6341 C587.059675,146.10636 587.430447,143.358051 585.970365,141.376996 C576.070501,127.935859 565.644249,114.095535 554.983897,100.240325" id="Fill-13" fill="#333333"></path>
                <path d="M529.958051,40.0847091 C530.635995,38.9913396 530.817321,37.6503383 530.453315,36.4054127 C530.092016,35.1686062 529.225981,34.1401894 528.078484,33.5894452 L524.433018,31.8384303 C522.354533,30.843843 519.886333,31.5989175 518.688769,33.602977 C504.05954,58.1253045 486.296346,78.8140731 465.894452,95.0928281 C464.902571,95.8844384 464.282815,97.0657645 464.193505,98.3350474 C464.104195,99.5975643 464.549391,100.846549 465.41272,101.761299 C466.305819,102.709878 467.156969,103.635453 467.964817,104.538024 C468.840325,105.516373 470.05954,106.022463 471.284168,106.022463 C472.247632,106.022463 473.212449,105.711231 474.018945,105.07253 C494.491204,88.8722598 513.311231,67.0075778 529.958051,40.0847091" id="Fill-15" fill="#333333"></path>
                <path d="M635.675237,34.9197564 C635.063599,33.811502 634.013532,33.0117727 632.797023,32.720839 L630.746955,32.232341 C628.433018,31.6788904 626.094723,33.0713126 625.433018,35.4014885 C619.546685,56.1457375 610.947226,75.097023 599.874154,91.7316644 C598.916103,93.1673884 598.860622,94.999594 599.730717,96.5110961 C600.077131,97.1186739 600.416779,97.7330176 600.748309,98.3568336 C601.519621,99.7979702 602.941813,100.697835 604.553451,100.758728 C606.123139,100.825034 607.607578,100.048309 608.473613,98.6924222 C610.407307,95.6612991 612.230041,92.5516915 613.91475,89.4069012 L613.91475,150.696482 C613.91475,153.190392 615.921516,155.218809 618.389716,155.218809 L620.952639,155.218809 C623.422192,155.218809 625.430311,153.190392 625.430311,150.696482 L625.430311,66.7127199 C629.051421,58.1254398 632.611637,48.6667118 636.008119,38.5936401 C636.419486,37.3811908 636.2977,36.0428958 635.675237,34.9197564" id="Fill-17" fill="#333333"></path>
                <mask id="mask-5" fill="white">
                    <use xlink:href="#path-4"></use>
                </mask>
                <g id="Clip-20"></g>
                <path d="M653.7023,140.964817 L701.820027,140.964817 L701.820027,132.797023 L653.7023,132.797023 L653.7023,140.964817 Z M653.7023,122.192152 L701.820027,122.192152 L701.820027,112.982409 L653.7023,112.982409 L653.7023,122.192152 Z M653.7023,102.898512 L701.820027,102.898512 L701.820027,93.6887686 L653.7023,93.6887686 L653.7023,102.898512 Z M653.7023,83.6048714 L701.820027,83.6048714 L701.820027,73.8728011 L653.7023,73.8728011 L653.7023,83.6048714 Z M720.68065,140.964817 L713.331529,140.964817 L713.331529,68.3112314 C713.331529,65.8173207 711.32341,63.7889039 708.857916,63.7889039 L683.516915,63.7889039 L683.516915,54.5778078 L718.110961,54.5778078 C720.577808,54.5778078 722.585927,52.5493911 722.585927,50.0554804 L722.585927,47.9756428 C722.585927,45.4817321 720.577808,43.4533153 718.110961,43.4533153 L683.516915,43.4533153 L683.516915,35.4600812 C683.516915,32.9661705 681.510149,30.9377537 679.044655,30.9377537 L676.477673,30.9377537 C674.010825,30.9377537 672.00406,32.9661705 672.00406,35.4600812 L672.00406,43.4533153 L639.979702,43.4533153 C637.511502,43.4533153 635.504736,45.4817321 635.504736,47.9756428 L635.504736,50.0554804 C635.504736,52.5493911 637.511502,54.5778078 639.979702,54.5778078 L672.00406,54.5778078 L672.00406,63.7889039 L646.663058,63.7889039 C644.197564,63.7889039 642.189445,65.8173207 642.189445,68.3112314 L642.189445,140.964817 L634.326116,140.964817 C631.859269,140.964817 629.85115,142.993234 629.85115,145.488498 L629.85115,147.046008 C629.85115,149.541272 631.859269,151.569689 634.326116,151.569689 L720.68065,151.569689 C723.14885,151.569689 725.155616,149.541272 725.155616,147.046008 L725.155616,145.488498 C725.155616,142.993234 723.14885,140.964817 720.68065,140.964817 L720.68065,140.964817 Z" id="Fill-19" fill="#333333" mask="url(#mask-5)"></path>
                <path d="M741.544384,72.038295 C742.219621,73.2778078 743.40636,74.1140731 744.797429,74.331935 C745.031529,74.3684709 745.265629,74.3874154 745.497023,74.3874154 C746.617456,74.3874154 747.690528,73.9638701 748.515968,73.1803789 C759.746008,62.5430311 769.279161,51.37659 776.855616,39.9895805 C777.552503,38.940866 777.775778,37.632341 777.467253,36.3982409 C777.154668,35.1533153 776.333288,34.0937754 775.211502,33.4916103 L772.492963,32.0315291 C770.440189,30.9259811 767.846143,31.6404601 766.597158,33.6499323 C758.902977,46.0355886 750.340054,56.1289581 741.151962,63.6512855 C739.353586,65.120839 738.921922,67.6120433 740.123545,69.5741543 C740.570095,70.3021651 741.043708,71.1248985 741.544384,72.038295" id="Fill-21" fill="#333333" mask="url(#mask-5)"></path>
                <path d="M798.087957,74.7401894 L841.064953,74.7401894 L841.064953,65.5290934 L798.087957,65.5290934 L798.087957,74.7401894 Z M798.087957,55.4465494 L841.064953,55.4465494 L841.064953,46.2354533 L798.087957,46.2354533 L798.087957,55.4465494 Z M791.050068,84.8227334 L848.104195,84.8227334 C850.572395,84.8227334 852.579161,82.7943166 852.579161,80.300406 L852.579161,40.6752368 C852.579161,38.1813261 850.572395,36.1529093 848.104195,36.1529093 L791.050068,36.1529093 C788.583221,36.1529093 786.576455,38.1813261 786.576455,40.6752368 L786.576455,80.300406 C786.576455,82.7943166 788.583221,84.8227334 791.050068,84.8227334 L791.050068,84.8227334 Z" id="Fill-22" fill="#333333" mask="url(#mask-5)"></path>
                <path d="M859.41502,111.241543 L845.899459,111.241543 L845.899459,103.073748 L856.843978,103.073748 C859.310825,103.073748 861.317591,101.045332 861.317591,98.5514208 L861.317591,96.9925575 C861.317591,94.4972936 859.310825,92.4688769 856.843978,92.4688769 L784.367659,92.4688769 C781.900812,92.4688769 779.892693,94.4972936 779.892693,96.9925575 L779.892693,98.5514208 C779.892693,101.045332 781.900812,103.073748 784.367659,103.073748 L834.382544,103.073748 L834.382544,111.241543 L779.226928,111.241543 C776.760081,111.241543 774.753315,113.269959 774.753315,115.76387 L774.753315,117.324087 C774.753315,119.817997 776.760081,121.846414 779.226928,121.846414 L791.670771,121.846414 L789.757375,123.371448 C788.79797,124.135995 788.203924,125.238836 788.082138,126.475643 C787.963058,127.707037 788.354127,128.951962 789.15115,129.889716 C792.103789,133.352503 794.982003,136.73816 797.779026,140.042625 C798.651827,141.071042 799.900812,141.610961 801.163329,141.610961 C802.022598,141.610961 802.89134,141.360622 803.654533,140.845061 L805.835859,139.370095 C806.88728,138.656969 807.5977,137.523004 807.784438,136.259134 C807.968471,135.006089 807.620704,133.725981 806.82774,132.750338 C803.895399,129.145467 800.720839,125.487821 797.428552,121.846414 L834.382544,121.846414 L834.383897,134.855886 C834.5341,137.656969 833.986062,139.702977 832.754668,140.934371 C831.539513,142.14276 829.553045,142.673207 826.773613,142.52977 C824.026658,142.52977 818.237754,142.425575 813.677537,142.259134 C812.35954,142.196888 810.975237,142.800406 810.082138,143.88295 C809.175507,144.983085 808.839919,146.416103 809.163329,147.812585 C809.382544,148.765223 809.592287,149.697564 809.770907,150.563599 C810.203924,152.656969 812.048309,154.17659 814.152503,154.17659 L828.796617,154.17659 C829.15115,154.187415 829.500271,154.192828 829.842625,154.192828 C835.241813,154.192828 839.339242,152.828823 842.033424,150.130582 C844.773613,147.390392 846.071313,143.271313 845.899459,137.923545 L845.899459,121.846414 L859.41502,121.846414 C861.880514,121.846414 863.888633,119.817997 863.888633,117.324087 L863.888633,115.76387 C863.888633,113.269959 861.880514,111.241543 859.41502,111.241543" id="Fill-23" fill="#333333" mask="url(#mask-5)"></path>
                <path d="M777.566171,69.1767253 C777.260352,67.9710419 776.503924,66.9710419 775.434912,66.3607578 L773.18728,65.0779432 C772.15751,64.4893099 770.966712,64.3404601 769.830041,64.655751 C768.669012,64.9764547 767.701488,65.7396482 767.103383,66.805954 C759.628417,80.1090663 750.415968,92.4987821 739.71502,103.625981 C738.406495,104.988633 738.079026,107.054939 738.905819,108.765359 C739.418674,109.828958 739.912585,110.87226 740.39161,111.90203 C741.031664,113.279567 742.30636,114.232206 743.798917,114.450068 C745.286062,114.671989 746.755616,114.126658 747.750203,113.007578 C750.647361,109.751827 753.495805,106.413532 756.245467,103.052233 L756.245467,151.217321 C756.245467,153.712585 758.253586,155.741001 760.723139,155.741001 L763.286062,155.741001 C765.754263,155.741001 767.761028,153.712585 767.761028,151.217321 L767.761028,87.6638701 C770.606766,83.0427605 773.694723,78.0589986 777.016779,72.7179973 C777.667659,71.6692828 777.869283,70.3797023 777.566171,69.1767253" id="Fill-24" fill="#333333" mask="url(#mask-5)"></path>
                <path d="M886.028011,49.364682 L980.61935,49.364682 C977.283762,56.3240866 974.220162,62.3443843 971.492152,67.2794317 C970.881867,68.3822733 970.758728,69.6975643 971.15115,70.8883627 C971.544926,72.0710419 972.421786,73.0453315 973.559811,73.5595399 C974.424493,73.9506089 975.423139,74.4255751 976.555751,74.9790257 C977.189039,75.2889039 977.860217,75.4350474 978.523275,75.4350474 C980.090257,75.4350474 981.601759,74.6136671 982.413667,73.1698241 C985.427199,67.8152909 988.957645,60.6231394 992.912991,51.7963464 C994.179567,48.9763194 994.848038,45.8504736 994.848038,42.7611637 C994.848038,40.267253 992.841272,38.2388363 990.373072,38.2388363 L886.028011,38.2388363 C883.561164,38.2388363 881.553045,40.267253 881.553045,42.7611637 L881.553045,44.8423545 C881.553045,47.3362652 883.561164,49.364682 886.028011,49.364682" id="Fill-25" fill="#333333" mask="url(#mask-5)"></path>
                <path d="M928.869959,80.4230041 C930.181191,80.4230041 931.476184,79.835724 932.358457,78.7166441 L934.307037,76.2470907 C935.076996,75.2714479 935.417997,74.0021651 935.24479,72.7653586 C935.07023,71.5285521 934.42341,70.4500677 933.420704,69.7288227 C926.082409,64.4514208 918.319215,59.4568336 910.348985,54.8871448 C908.465359,53.8073072 906.091881,54.2416779 904.698106,55.9155616 L903.301624,57.5894452 C902.476184,58.5786198 902.114885,59.8817321 902.30433,61.1645467 C902.499188,62.4554804 903.232612,63.6016238 904.317862,64.3106901 C912.224493,69.4717185 919.592558,74.5935047 926.21908,79.5366712 C927.018809,80.1334235 927.948444,80.4230041 928.869959,80.4230041" id="Fill-26" fill="#333333" mask="url(#mask-5)"></path>
                <path d="M920.559269,90.065088 C914.624222,85.8485792 906.398241,80.5644114 896.11272,74.3560217 L896.110014,74.3560217 C894.158728,73.1801083 891.641813,73.6631935 890.256157,75.4859269 L889.073478,77.0474966 C888.323816,78.0380244 888.015291,79.2640054 888.210149,80.5008119 C888.4023,81.7213802 889.088363,82.8242219 890.093775,83.5265223 C898.721651,89.5603518 906.559269,95.0962111 913.388769,99.982544 C914.166847,100.540054 915.068065,100.81069 915.96387,100.81069 C917.281867,100.81069 918.587686,100.222057 919.4659,99.1056834 L921.464547,96.5738836 C922.237212,95.5928281 922.576861,94.3235453 922.398241,93.0907984 C922.222327,91.8553451 921.568742,90.7809202 920.559269,90.065088" id="Fill-27" fill="#333333" mask="url(#mask-5)"></path>
                <path d="M994.846685,104.462517 L952.975237,104.462517 C954.762788,95.7629229 955.862923,79.7872801 956.243166,56.9253045 C956.264817,55.6925575 955.80203,54.5315291 954.940054,53.6546685 C954.09161,52.7913396 952.965765,52.3177267 951.7682,52.3177267 L948.217456,52.3177267 C945.764141,52.3177267 943.756022,54.3461434 943.745196,56.8387009 C943.641001,78.5396482 942.50839,94.5518268 940.377131,104.462517 L880.88728,104.462517 C878.420433,104.462517 876.413667,106.490934 876.413667,108.986198 L876.413667,111.066035 C876.413667,113.559946 878.420433,115.588363 880.88728,115.588363 L937.113261,115.588363 C932.624763,126.478755 914.94276,136.026793 884.50839,143.986198 C883.086198,144.358322 881.935995,145.411096 881.431258,146.804871 C880.92111,148.210825 881.132206,149.773748 881.996888,150.987551 C882.733018,152.015968 883.559811,153.155345 884.47456,154.405683 C885.336536,155.584303 886.697835,156.250068 888.099729,156.250068 C888.528687,156.250068 888.958999,156.187821 889.381191,156.059269 C916.969824,147.714208 935.051015,138.241949 943.15115,127.896888 C962.714073,138.14452 977.452909,146.377267 986.975237,152.373207 C988.934641,153.60866 991.471854,153.132341 992.880514,151.264953 L995.324357,148.024087 C996.117321,146.969959 996.410961,145.619486 996.133559,144.320433 C995.853451,143.024087 995.034777,141.921245 993.883221,141.290663 C978.995535,133.14452 964.056428,125.179702 949.461028,117.607307 C949.789851,116.890122 950.074019,116.214885 950.309472,115.588363 L994.846685,115.588363 C997.313532,115.588363 999.321651,113.559946 999.321651,111.066035 L999.321651,108.986198 C999.321651,106.490934 997.313532,104.462517 994.846685,104.462517" id="Fill-28" fill="#333333" mask="url(#mask-5)"></path>
                <path d="M387.790257,221.277943 C379.014885,215.987009 372.675237,208.39567 368.776725,198.503924 L372.746955,197.041137 C376.507442,206.375372 382.426252,213.130447 390.506089,217.307713 C389.389716,218.980244 388.485792,220.305007 387.790257,221.277943 M362.508796,246.142625 C362.368065,244.74885 362.159675,243.286062 361.882273,241.754263 L365.224628,241.754263 C367.313938,241.890934 368.913396,241.964005 370.02977,241.964005 C373.79161,242.241407 375.740189,240.292828 375.88092,236.112855 C376.017591,234.723139 376.158322,232.562111 376.299053,229.636536 C376.435724,226.57429 376.507442,224.411908 376.507442,223.158863 L360.209743,223.158863 C360.070365,225.388904 359.792963,227.478214 359.373478,229.426793 C358.397835,237.367253 353.17456,243.42544 343.703654,247.605413 C343.005413,246.489039 342.169147,245.30636 341.196211,244.053315 C349.554804,240.432206 354.219215,235.348309 355.196211,228.800271 C355.612991,226.992422 355.822733,225.111502 355.822733,223.158863 L346.837618,223.158863 L346.837618,219.188633 L380.895805,219.188633 C380.614344,227.409202 380.336942,233.258999 380.05954,236.740731 C379.918809,243.00866 376.715832,246.069553 370.447903,245.934235 C367.242219,246.069553 364.598106,246.142625 362.508796,246.142625 M342.240866,221.487686 C341.960758,220.792152 341.265223,219.747497 340.151556,218.353721 C340.010825,217.935589 339.871448,217.658187 339.733424,217.517456 C347.392422,212.503924 353.315291,205.889581 357.493911,197.669012 L361.67253,199.548579 C356.377537,208.882815 349.901218,216.195399 342.240866,221.487686" id="Fill-29" fill="#333333" mask="url(#mask-5)"></path>
                <path d="M468.901218,217.308525 L496.480379,217.308525 L496.480379,212.921516 L468.901218,212.921516 L468.901218,217.308525 Z M464.722598,220.44249 L500.451962,220.44249 L500.451962,209.786198 L464.722598,209.786198 L464.722598,220.44249 Z M458.036536,206.02571 L458.036536,202.473613 L481.228687,202.473613 L479.556157,197.460081 L483.94452,196.832206 C484.780785,198.644114 485.407307,200.523681 485.82544,202.473613 L507.554804,202.473613 L507.554804,206.02571 L458.036536,206.02571 Z M457.618403,236.948579 L457.618403,233.606225 L481.437077,233.606225 L481.437077,231.308525 L493.138024,227.546685 L462.215156,227.546685 L462.215156,224.41272 L501.286874,224.41272 L501.286874,227.756428 L485.82544,233.188092 L485.82544,233.606225 L507.972936,233.606225 L507.972936,236.948579 L485.82544,236.948579 L485.82544,240.710419 C485.82544,244.889039 483.73613,246.978349 479.556157,246.978349 L475.79567,246.978349 C473.983762,247.11502 472.589986,247.186739 471.61705,247.186739 C471.476319,245.933694 471.198917,244.608931 470.782138,243.216509 C473.14885,243.354533 475.515562,243.426252 477.88498,243.426252 C480.392422,243.562923 481.575101,242.519621 481.437077,240.292287 L481.437077,236.948579 L457.618403,236.948579 Z" id="Fill-30" fill="#333333" mask="url(#mask-5)"></path>
                <path d="M602.873884,221.905683 C600.22571,219.678349 597.928011,217.935453 595.978078,216.682409 L598.277131,213.966576 C600.783221,215.636401 603.151286,217.308931 605.381326,218.980108 L602.873884,221.905683 Z M602.037618,235.069418 C599.948309,233.119486 597.718268,231.238566 595.351556,229.428011 L597.650609,226.919215 C600.156698,228.732476 602.52341,230.471313 604.754804,232.14249 L602.037618,235.069418 Z M588.457104,213.338701 L586.994317,222.532206 L614.365088,222.532206 C614.64249,219.330582 614.783221,216.264276 614.783221,213.338701 L588.457104,213.338701 Z M613.737212,235.486198 L614.365088,226.292693 L586.367794,226.292693 L584.695264,235.486198 L613.737212,235.486198 Z M577.800812,214.593099 C577.520704,214.174966 577.101218,213.478078 576.546414,212.503789 C576.128281,211.808254 575.780514,211.249391 575.501759,210.831258 C580.653315,206.653992 584.486874,201.917862 586.994317,196.622869 L591.591069,197.250744 C590.892828,198.503789 590.128281,199.758187 589.292016,201.012585 L624.603248,201.012585 L624.603248,204.563329 L586.994317,204.563329 C584.486874,207.905683 581.420568,211.249391 577.800812,214.593099 L577.800812,214.593099 Z M575.293369,226.292693 L575.293369,222.532206 L582.605954,222.532206 L584.905007,209.786604 L619.17023,209.786604 L618.752097,222.532206 L625.856292,222.532206 L625.856292,226.292693 L618.543708,226.292693 L617.917185,235.486198 L623.976725,235.486198 L623.976725,239.038295 L617.708796,239.038295 C617.427334,244.330582 614.573478,246.977402 609.141813,246.977402 L601.202706,246.977402 C600.921245,246.280514 600.643843,245.165494 600.365088,243.635047 C600.22571,243.354939 600.156698,243.145196 600.156698,243.008525 C601.270365,243.145196 603.84682,243.216915 607.887415,243.216915 C611.508525,243.354939 613.389445,241.96387 613.528823,239.038295 L579.890122,239.038295 L581.979432,226.292693 L575.293369,226.292693 Z" id="Fill-31" fill="#333333" mask="url(#mask-5)"></path>
                <polygon id="Fill-32" fill="#333333" mask="url(#mask-5)" points="692.759134 223.158322 743.530447 223.158322 743.530447 218.562923 692.759134 218.562923"></polygon>
                <path d="M848.976996,225.875507 L856.499323,225.875507 L856.499323,211.040595 L848.976996,211.040595 L848.976996,225.875507 Z M837.276049,225.875507 L845.008119,225.875507 L845.008119,211.040595 L837.276049,211.040595 L837.276049,225.875507 Z M845.008119,247.395129 L845.008119,229.635995 L837.276049,229.635995 L837.276049,232.351827 L833.515562,232.351827 L833.515562,207.280108 L845.008119,207.280108 L845.008119,197.040595 L848.978349,197.040595 L848.978349,207.280108 L860.469553,207.280108 L860.469553,232.351827 L856.499323,232.351827 L856.499323,229.635995 L848.978349,229.635995 L848.978349,247.395129 L845.008119,247.395129 Z M812.622463,216.473613 L812.622463,212.711773 L819.935047,212.711773 L819.935047,204.14479 L816.801083,204.14479 C815.405954,204.285521 814.29364,204.354533 813.458728,204.354533 C813.316644,202.824087 813.108254,201.569689 812.830853,200.592693 C818.818674,200.457375 824.599459,200.175913 830.173207,199.757781 L830.799729,203.518268 C829.963464,203.518268 828.779432,203.589986 827.247632,203.728011 C825.713126,203.728011 824.5318,203.798376 823.695535,203.936401 L823.695535,212.711773 L830.799729,212.711773 L830.799729,216.473613 L823.695535,216.473613 L823.695535,222.949932 L825.576455,221.488498 C826.271989,222.185386 827.316644,223.231394 828.710419,224.62111 C830.101488,226.155616 831.217862,227.338295 832.054127,228.173207 L829.128552,230.890392 C828.428958,230.054127 827.457375,228.941813 826.202977,227.546685 C825.087957,226.292287 824.250338,225.320704 823.695535,224.62111 L823.695535,247.395129 L819.935047,247.395129 L819.935047,224.20433 C818.26387,229.081191 816.033829,233.537212 813.248985,237.575101 C813.108254,237.158322 812.899865,236.5318 812.622463,235.695535 C812.064953,234.581867 811.714479,233.745602 811.577808,233.188092 C814.779432,229.009472 817.427605,223.439783 819.516915,216.473613 L812.622463,216.473613 Z" id="Fill-33" fill="#333333" mask="url(#mask-5)"></path>
                <path d="M953.897158,242.173207 L974.373478,242.173207 L974.373478,237.366712 L953.897158,237.366712 L953.897158,242.173207 Z M953.897158,234.44249 L974.373478,234.44249 L974.373478,229.427605 L953.897158,229.427605 L953.897158,234.44249 Z M953.897158,226.50203 L974.373478,226.50203 L974.373478,221.488498 L953.897158,221.488498 L953.897158,226.50203 Z M953.897158,218.562923 L974.373478,218.562923 L974.373478,213.756428 L953.897158,213.756428 L953.897158,218.562923 Z M947.420839,205.399188 L947.420839,202.05548 L962.046008,202.05548 L962.046008,197.040595 L966.224628,197.040595 L966.224628,202.05548 L981.894452,202.05548 L981.894452,205.399188 L966.224628,205.399188 L966.224628,210.414073 L978.553451,210.414073 L978.553451,242.173207 L982.94046,242.173207 L982.94046,245.725304 L945.123139,245.725304 L945.123139,242.173207 L949.926928,242.173207 L949.926928,210.414073 L962.046008,210.414073 L962.046008,205.399188 L947.420839,205.399188 Z M938.018945,247.186739 L938.018945,218.562923 C936.623816,221.069012 935.093369,223.577808 933.420839,226.083897 C933.281461,225.667118 933.071719,224.971583 932.794317,223.994587 C932.377537,222.740189 932.027064,221.836265 931.749662,221.277402 C936.484438,214.037889 940.175913,205.956698 942.822733,197.040595 L946.794317,198.086604 C945.258457,202.404601 943.660352,206.584574 941.987821,210.622463 L941.987821,247.186739 L938.018945,247.186739 Z" id="Fill-34" fill="#333333" mask="url(#mask-5)"></path>
            </g>
        </g>
    </g>
</svg>